# xmcd CD database file
#
# Track frame offsets:
#	150
#	20632
#	37322
#	59577
#	77702
#	98542
#	107917
#	127742
#	147020
#	159470
#
# Disc length: 2618 seconds
#
# Revision: 0
# Processed by: cddbd v1.5.1PL0 Copyright (c) Steve Scherf et al.
# Submitted via: CDex 1.51
#
DISCID=800a380a
DTITLE=ULTRA POP - Games
DYEAR=1994
DGENRE=Rock
TTITLE0=TIME
TTITLE1=マイナス
TTITLE2=メリーゴーランド
TTITLE3=マリコ
TTITLE4=月
TTITLE5=イヌ
TTITLE6=Flash Back
TTITLE7=ガレッポ
TTITLE8=Bye Bye Good Boy
TTITLE9=ドーパミンの海
EXTD=YEAR: 1994.07/21
EXTT0=
EXTT1=
EXTT2=
EXTT3=
EXTT4=
EXTT5=
EXTT6=
EXTT7=
EXTT8=
EXTT9=
PLAYORDER=
